<?xml version="1.0" encoding="iso-8859-1"?>
<!-- Generator: Adobe Illustrator 21.0.0, SVG Export Plug-In . SVG Version: 6.00 Build 0)  -->
<svg xmlns="http://www.w3.org/2000/svg" xmlns:xlink="http://www.w3.org/1999/xlink" version="1.1" id="Capa_1" x="0px" y="0px" viewBox="0 0 512.105 512.105" style="enable-background:new 0 0 512.105 512.105;" xml:space="preserve" width="512" height="512">
<g>
	<path d="M196.851,135c0-8.284-6.716-15-15-15H76.053c-8.284,0-15,6.716-15,15s6.716,15,15,15h105.798   C190.135,150,196.851,143.284,196.851,135z"/>
	<path d="M192.095,195c0-8.284-6.716-15-15-15h-71.042c-8.284,0-15,6.716-15,15s6.716,15,15,15h71.042   C185.379,210,192.095,203.284,192.095,195z"/>
	<path d="M179.304,255c0-8.284-6.716-15-15-15h-58.251c-8.284,0-15,6.716-15,15s6.716,15,15,15h58.251   C172.588,270,179.304,263.284,179.304,255z"/>
	<path d="M76.053,300c-8.284,0-15,6.716-15,15s6.716,15,15,15h57.307c8.284,0,15-6.716,15-15s-6.716-15-15-15H76.053z"/>
	<path d="M113.357,375c0-8.284-6.716-15-15-15H15.053c-8.284,0-15,6.716-15,15s6.716,15,15,15h83.305   C106.642,390,113.357,383.284,113.357,375z"/>
	<path d="M467.053,150h-44.715l-36.268-30.223c1.645,0.136,3.303,0.223,4.983,0.223c33.084,0,60-26.916,60-60s-26.916-60-60-60   s-60,26.916-60,60c0,5.421,0.735,10.671,2.089,15.67L246.51,3.477C243.814,1.23,240.416,0,236.907,0h-70.854   c-24.813,0-45,20.187-45,45s20.187,45,45,45h43.715l54.126,45.105l-44.649,76.542c-10.362,17.762-12.675,38.835-7.344,58.036   L110.299,444.412c-12.502,21.433-5.238,49.041,16.195,61.544c21.65,12.629,49.114,5.115,61.558-16.216   c10.307-17.734,72.207-124.232,80.866-139.13l32.135,40.169V467c0,24.813,20.187,45,45,45s45-20.187,45-45V364.482   c0-3.406-1.159-6.711-3.287-9.371l-65.514-81.892l35.12-60.216l28.224,23.519c2.696,2.247,6.094,3.477,9.603,3.477h71.854   c24.813,0,45-20.187,45-45S491.866,150,467.053,150z M391.053,30c16.542,0,30,13.458,30,30s-13.458,30-30,30s-30-13.458-30-30   S374.511,30,391.053,30z M354.869,157.749l-18.834-40.616l28.615,23.846L354.869,157.749z M151.053,45c0-8.271,6.729-15,15-15h15   v30h-15C157.782,60,151.053,53.271,151.053,45z M224.801,63.477C222.105,61.23,218.707,60,215.198,60h-4.146V30h20.424   l50.665,42.221l54.307,117.113l-9.327,15.991l-62.201-12.44l31.28-53.623c3.69-6.326,2.272-14.393-3.354-19.082L224.801,63.477z    M296.554,257.735l-57.453-9.264c0.15-7.506,2.145-15,6.057-21.707l3.781-6.481l62.203,12.441L296.554,257.735z M141.61,480.043   c-7.144-4.167-9.566-13.371-5.388-20.533l11.329-19.483l25.005,16.67l-10.431,17.947   C157.948,481.806,148.772,484.221,141.61,480.043z M187.661,430.711l-25.001-16.667l66.086-113.649l20.074,25.093L187.661,430.711z    M346.053,482c-8.271,0-15-6.729-15-15v-15h30v15C361.053,475.271,354.324,482,346.053,482z M361.053,369.744V422h-30v-36.482   c0-3.406-1.159-6.71-3.287-9.371l-76.226-95.283l44.096,7.11L361.053,369.744z M372.698,186.726l15.322-26.271l19.283,16.069   C410,178.77,413.398,180,416.907,180h4.146v30h-20.424L372.698,186.726z M467.053,210h-16v-30h16c8.271,0,15,6.729,15,15   S475.324,210,467.053,210z"/>
</g>















</svg>
