<?xml version="1.0" encoding="iso-8859-1"?>
<!-- Generator: Adobe Illustrator 21.0.0, SVG Export Plug-In . SVG Version: 6.00 Build 0)  -->
<svg xmlns="http://www.w3.org/2000/svg" xmlns:xlink="http://www.w3.org/1999/xlink" version="1.1" id="Capa_1" x="0px" y="0px" viewBox="0 0 512 512" style="enable-background:new 0 0 512 512;" xml:space="preserve" width="512" height="512">
<g>
	<path d="M316,60c0-33.084-26.916-60-60-60s-60,26.916-60,60s26.916,60,60,60S316,93.084,316,60z M256,90c-16.542,0-30-13.458-30-30   s13.458-30,30-30s30,13.458,30,30S272.542,90,256,90z"/>
	<path d="M497,0H376c-5.682,0-10.876,3.21-13.416,8.292L306.73,120H205.27L149.417,8.292C146.875,3.21,141.682,0,136,0H15   C6.716,0,0,6.716,0,15c0,19.087,7.293,37.112,20.575,51.087V75c0,41.458,34.535,74.99,76,74.99h39.481   c-6.568,8.727-11.29,18.928-13.549,30.01H76c-24.813,0-45,20.187-45,45s20.187,45,45,45h105.01l0,197c0,24.813,20.177,45,44.99,45   c11.515,0,22.033-4.347,30-11.486c7.967,7.139,18.485,11.486,30,11.486c24.813,0,45-20.187,45-45c0-7.27,0-182.369,0-197h105   c24.813,0,45-20.187,45-45s-20.187-45-45-45h-46.507c-2.259-11.082-6.981-21.273-13.549-30h32.974   c40.057,0,73.918-31.385,75.906-71.264l0.313-6.28C501.545,58.687,512,38.045,512,15C512,6.716,505.284,0,497,0z M279.787,150   L256,173.787L232.213,150H279.787z M52.066,86.139C59.704,88.666,67.759,90,76,90h30c8.284,0,15-6.716,15-15s-6.716-15-15-15H76   c-19.588,0-36.782-12.72-43.258-30h93.988l45,90H96.575C75.553,120,57.283,105.353,52.066,86.139z M61,225c0-8.271,6.729-15,15-15   h15v30H76C67.729,240,61,233.271,61,225z M301,330v92h-30v-92H301z M241,422h-30l0-92h30V422z M226,482c-8.271,0-15-6.729-15-15   v-15h30v15C241,475.271,234.271,482,226,482z M286,482c-8.271,0-15-6.729-15-15v-15h30v15C301,475.271,294.271,482,286,482z    M301,300h-90l0-30h90V300z M451,225c0,8.271-6.729,15-15,15h-15v-30h15C444.271,210,451,216.729,451,225z M391,210v30h-60v-45   c0-8.284-6.716-15-15-15s-15,6.716-15,15v45h-90v-45c0-8.284-6.716-15-15-15s-14.99,6.716-14.99,15v45H121v-30h15   c8.284,0,15-6.716,15-15c0-22.838,17.106-41.744,39.177-44.61l55.217,55.217C248.322,208.536,252.161,210,256,210   s7.678-1.464,10.606-4.394l55.217-55.217C343.894,153.256,361,172.162,361,195c0,8.284,6.716,15,15,15H391z M408.918,120H340.27   l45-90.01h94.159C473.239,47.451,456.557,60,437,60h-31c-8.284,0-15,6.716-15,15s6.716,15,15,15h31   c5.425,0,10.713-0.593,15.814-1.692C446.896,106.537,429.156,120,408.918,120z"/>
	<path d="M76,392c8.284,0,15-6.716,15-15v-62c0-8.284-6.716-15-15-15s-15,6.716-15,15v62C61,385.284,67.716,392,76,392z"/>
	<path d="M136,512c8.284,0,15-6.716,15-15V315c0-8.284-6.716-15-15-15s-15,6.716-15,15v182C121,505.284,127.716,512,136,512z"/>
	<path d="M391,497V315c0-8.284-6.716-15-15-15s-15,6.716-15,15v182c0,8.284,6.716,15,15,15S391,505.284,391,497z"/>
	<path d="M61,497c0,8.284,6.716,15,15,15s15-6.716,15-15v-60c0-8.284-6.716-15-15-15s-15,6.716-15,15V497z"/>
	<path d="M436,392c8.284,0,15-6.716,15-15v-62c0-8.284-6.716-15-15-15s-15,6.716-15,15v62C421,385.284,427.716,392,436,392z"/>
	<path d="M421,497c0,8.284,6.716,15,15,15s15-6.716,15-15v-60c0-8.284-6.716-15-15-15s-15,6.716-15,15V497z"/>
</g>















</svg>
