<?xml version="1.0" encoding="iso-8859-1"?>
<!-- Generator: Adobe Illustrator 21.0.0, SVG Export Plug-In . SVG Version: 6.00 Build 0)  -->
<svg xmlns="http://www.w3.org/2000/svg" xmlns:xlink="http://www.w3.org/1999/xlink" version="1.1" id="Capa_1" x="0px" y="0px" viewBox="0 0 512 512" style="enable-background:new 0 0 512 512;" xml:space="preserve" width="512" height="512">
<g>
	<path d="M15,465.963c53.036,0,97.053,0,150.515,0l148.543,29.709c3.636,0.727,8.537,0.504,12.495-1.927L504.85,384.247   c3.596-2.208,6.095-5.829,6.885-9.975c0.79-4.145-0.203-8.431-2.735-11.807c-24.74-32.986-71.312-39.778-104.418-15.425   l-31.668,19.555c-10.141-29.425-38.088-50.632-70.914-50.632h-38.947c-19.51-18.141-39.667-28.161-59.985-29.803   c-24.487-1.977-48.724,8.045-72.119,29.803H15c-8.284,0-15,6.716-15,15v120C0,459.247,6.716,465.963,15,465.963z M246.394,341.57   c2.813,2.813,6.628,4.393,10.606,4.393h45c19.555,0,36.228,12.541,42.42,30H257c-8.284,0-15,6.716-15,15s6.716,15,15,15h105   c2.848,0,5.638-0.853,7.881-2.237c53.781-33.234,51.102-31.491,52.127-32.26c15.472-11.605,35.492-11.521,50.367-2.481   l-156.923,96.372l-145.511-29.102c-0.969-0.194-1.954-0.291-2.942-0.291c-23.598,0-51.416,0-77,0v-90h47   c0.008,0,0.015-0.001,0.022-0.001c4.098-0.006,7.92-1.73,10.582-4.39c0.001-0.001,0.001-0.001,0.002-0.002   C181.767,307.41,212.233,307.41,246.394,341.57z M30,345.963h30v90c-10.492,0-19.508,0-30,0V345.963z"/>
	<path d="M482,150.963c0-8.284-6.716-15-15-15h-20.984l4.23-7.963c3.887-7.316,1.107-16.397-6.209-20.284   c-7.315-3.886-16.396-1.107-20.284,6.209l-11.707,22.037h-28.833l4.393-4.393c5.858-5.858,5.858-15.355,0-21.213   c-5.857-5.858-15.355-5.858-21.213,0L362,114.75V83.899l21.012-9.193c7.59-3.321,11.051-12.165,7.73-19.755   c-3.32-7.59-12.165-11.05-19.754-7.73L362,51.153v-20.19c0-8.284-6.716-15-15-15s-15,6.716-15,15v20.19l-8.988-3.932   c-7.59-3.32-16.435,0.14-19.754,7.73c-3.321,7.59,0.14,16.434,7.73,19.755L332,83.899v30.852l-4.394-4.394   c-5.857-5.858-15.355-5.858-21.213,0c-5.858,5.858-5.858,15.355,0,21.213l4.393,4.393h-30.852l-9.193-21.012   c-3.32-7.589-12.164-11.051-19.755-7.73c-7.59,3.32-11.051,12.165-7.73,19.755l3.932,8.988H227c-8.284,0-15,6.716-15,15   s6.716,15,15,15h20.189l-3.932,8.988c-3.32,7.59,0.141,16.434,7.73,19.755c7.589,3.319,16.434-0.14,19.755-7.73l9.193-21.012   h30.852l-4.393,4.393c-5.858,5.858-5.858,15.355,0,21.213c5.857,5.857,15.355,5.858,21.213,0l4.394-4.394v31.031l-20.913,8.97   c-7.613,3.266-11.138,12.085-7.873,19.698c3.266,7.615,12.086,11.138,19.699,7.873l9.087-3.898v20.112c0,8.284,6.716,15,15,15   s15-6.716,15-15v-20.27l8.885,3.967c7.563,3.377,16.434-0.018,19.812-7.582c3.377-7.565-0.018-16.435-7.583-19.812L362,217.84   v-30.664l4.394,4.394c5.857,5.857,15.355,5.858,21.213,0c5.858-5.858,5.858-15.355,0-21.213l-4.393-4.393h28.833l11.707,22.037   c3.906,7.354,13.003,10.077,20.284,6.209c7.316-3.887,10.096-12.968,6.209-20.284l-4.23-7.963H467   C475.284,165.963,482,159.247,482,150.963z"/>
	<circle cx="287" cy="90.963" r="15"/>
	<circle cx="407" cy="90.963" r="15"/>
	<circle cx="407" cy="210.963" r="15"/>
	<circle cx="287" cy="210.963" r="15"/>
</g>















</svg>
