<?xml version="1.0" encoding="iso-8859-1"?>
<!-- Generator: Adobe Illustrator 21.0.0, SVG Export Plug-In . SVG Version: 6.00 Build 0)  -->
<svg xmlns="http://www.w3.org/2000/svg" xmlns:xlink="http://www.w3.org/1999/xlink" version="1.1" id="Capa_1" x="0px" y="0px" viewBox="0 0 512.074 512.074" style="enable-background:new 0 0 512.074 512.074;" xml:space="preserve" width="512" height="512">
<g>
	<path d="M374.385,93.211c0-29.308-7.923-56.559-24.935-85.761c-2.703-4.643-7.714-7.454-13.059-7.449   c-5.373,0.035-10.316,2.941-12.961,7.619c-18.911,33.457-39.83,59.842-58.899,74.291c-25.354,19.205-51.274,45.933-51.274,98.554   c0,69.226,56.293,120.906,119.013,120.906c0.002,0,0.004,0,0.006,0c61.188-0.022,118.738-45.826,118.738-118.684   c0-18.928-3.324-37.163-9.361-51.345c-2.302-5.408-7.551-8.973-13.426-9.12c-5.846-0.151-11.296,3.151-13.866,8.437   c-4.625,9.514-6.921,18.505-9.535,25.657c-2.764,7.564-10.04,12.646-18.105,12.646c-10.348,0-18.821-8.157-19.307-18.366   C370.105,134.823,374.385,111.195,374.385,93.211z M386.721,198.96c13.027,0,25.252-5.194,34.27-13.9   c-1.314,62.804-54.835,86.298-88.72,86.31c-49.082,0-89.013-40.78-89.013-90.906c0-37.185,15.746-56.731,39.391-74.641   c12.872-9.754,31.519-27.678,52.516-59.761c6.306,15.742,9.221,30.921,9.221,47.149c0,20.112-6.992,52.116-6.992,56.459   C337.393,176.849,359.522,198.96,386.721,198.96z"/>
	<path d="M15.037,482c53.036,0,97.053,0,150.515,0l148.544,29.709c3.628,0.725,8.528,0.509,12.494-1.927l178.297-109.498   c3.596-2.208,6.096-5.829,6.886-9.974c0.789-4.145-0.203-8.432-2.735-11.808c-24.667-32.889-71.365-39.729-104.418-15.425   l-31.668,19.555C362.81,353.206,334.862,332,302.037,332h-38.947c-19.51-18.141-39.667-28.161-59.985-29.803   c-24.489-1.978-48.724,8.045-72.119,29.803H15.037c-8.284,0-15,6.716-15,15v120C0.037,475.284,6.753,482,15.037,482z    M246.43,357.606c2.813,2.813,6.628,4.393,10.606,4.393h45c19.555,0,36.228,12.541,42.42,30h-87.42c-8.284,0-15,6.716-15,15   s6.716,15,15,15h105c2.789,0,5.597-0.827,7.881-2.237c54.307-33.559,51.105-31.494,52.127-32.26   c15.111-11.333,35.098-11.698,50.346-2.468l-156.901,96.358C161.225,450.645,169.847,452,167.037,452c-23.598,0-51.416,0-77,0v-90   h47c0.008,0,0.015-0.001,0.022-0.001c3.892-0.006,7.757-1.567,10.582-4.39c0.001-0.001,0.001-0.001,0.002-0.002   C181.803,323.446,212.27,323.446,246.43,357.606z M30.037,362h30v90c-10.492,0-19.508,0-30,0V362z"/>
</g>















</svg>
