<?xml version="1.0" encoding="iso-8859-1"?>
<!-- Generator: Adobe Illustrator 21.0.0, SVG Export Plug-In . SVG Version: 6.00 Build 0)  -->
<svg xmlns="http://www.w3.org/2000/svg" xmlns:xlink="http://www.w3.org/1999/xlink" version="1.1" id="Capa_1" x="0px" y="0px" viewBox="0 0 512.008 512.008" style="enable-background:new 0 0 512.008 512.008;" xml:space="preserve" width="512" height="512">
<g>
	<path d="M275.397,245.396c-10.693,10.693-28.094,10.693-38.787,0c-5.857-5.858-15.355-5.858-21.213,0   c-5.858,5.858-5.858,15.355,0,21.213c10.846,10.847,25.267,16.82,40.606,16.82s29.76-5.973,40.606-16.82   c5.858-5.858,5.858-15.355,0-21.213C290.753,239.537,281.255,239.537,275.397,245.396z"/>
	<path d="M512.004,106.002c0-8.284-6.716-15-15-15h-39.189l-3.677-11.03l53.559-54.452c5.809-5.906,5.731-15.403-0.175-21.212   c-5.907-5.81-15.403-5.73-21.212,0.175l-26.333,26.772L413.996,2.308C406.984-2.106,397.723,0,393.31,7.01   c-4.414,7.011-2.308,16.272,4.703,20.686l40.43,25.453L426.31,65.484c-3.953,4.019-5.319,9.914-3.537,15.262   c4.687,14.061,18.599,55.797,23.419,70.256h-9.188c-3.936,0-7.713,1.546-10.519,4.306l-35.481,34.9v-54.206   c0-76.265-60.833-136-135-136c-74.635,0-135.979,61.314-136,135.962c0,0.013-0.002,0.025-0.002,0.038   c0,0.01,0.001,0.019,0.001,0.029v53.758L85.61,155.396c-2.813-2.813-6.628-4.394-10.606-4.394h-9.188   c4.848-14.545,18.711-56.133,23.419-70.256c1.782-5.348,0.417-11.244-3.537-15.262L73.459,53.041l39.64-25.411   c6.974-4.471,9.004-13.749,4.533-20.723c-4.471-6.974-13.748-9.003-20.723-4.533L51.962,31.186L25.698,4.484   C19.89-1.422,10.392-1.501,4.485,4.308c-5.906,5.809-5.984,15.306-0.175,21.212l53.559,54.452l-3.677,11.03H15.004   c-8.284,0-15,6.716-15,15s6.716,15,15,15h29.188l-13.419,40.256c-1.524,4.575-0.757,9.603,2.062,13.514   c2.819,3.912,7.347,6.229,12.168,6.229H68.79l55.607,55.606c0.794,0.794,1.659,1.471,2.569,2.05   c3.885,11.551,9.302,22.412,16.012,32.344h-40.597l-78.555-57.131c-6.701-4.873-16.082-3.392-20.954,3.308   c-4.873,6.7-3.392,16.081,3.308,20.954l45.195,32.869H15.004c-8.284,0-15,6.716-15,15s6.716,15,15,15c8.977,0,149.969,0,155.624,0   c11.961,9.602,25.587,17.232,40.376,22.395v7.605h-45c-25.41,0-48.246,12.516-62.3,32.253l-30.41,9.279l-14.595-32.653   c-3.381-7.564-12.254-10.954-19.815-7.573c-7.563,3.381-10.954,12.252-7.573,19.815l13.067,29.234l-33.75,10.298   c-5.038,1.537-8.9,5.604-10.176,10.714c-1.276,5.11,0.222,10.515,3.947,14.239l22.408,22.408L1.543,490.383   c-3.656,7.434-0.593,16.424,6.841,20.08c7.496,3.685,16.455,0.531,20.08-6.841l30-61c2.833-5.761,1.686-12.687-2.854-17.226   l-12.336-12.336l47.093-14.369c-0.239,2.416-0.363,4.855-0.363,7.312v91c0,8.284,6.716,15,15,15h301c8.284,0,15-6.716,15-15v-91   c0-3.208-0.226-6.362-0.618-9.465l48.786,16.083l-12.774,12.775c-4.54,4.54-5.687,11.465-2.854,17.226l30,61   c3.639,7.399,12.612,10.513,20.08,6.841c7.434-3.656,10.497-12.646,6.841-20.08l-25.262-51.366l22.408-22.408   c3.683-3.682,5.191-9.011,3.987-14.077c-1.205-5.066-4.951-9.145-9.897-10.775l-40.298-13.285l17.602-23.469   c4.971-6.627,3.627-16.029-3-21s-16.029-3.627-21,3l-23.668,31.557c-20.06-6.367-21.146-7.56-25.368-7.551   c-14.22-18.904-36.366-30.007-59.964-30.007h-45v-7.722c14.553-5.161,27.965-12.749,39.749-22.278c23.403,0,134.061,0,156.251,0   c8.284,0,15-6.716,15-15s-6.716-15-15-15H459.06l46.569-32.728c6.778-4.763,8.411-14.119,3.647-20.897   c-4.762-6.777-14.118-8.411-20.897-3.647l-81.494,57.272h-38.686c6.667-9.941,12.048-20.813,15.905-32.376   c0.854-0.549,1.667-1.19,2.419-1.93l56.622-55.694h23.859c4.822,0,9.35-2.318,12.168-6.229c2.819-3.912,3.586-8.939,2.062-13.514   l-13.419-40.256h29.188C505.288,121.002,512.004,114.286,512.004,106.002z M256.004,301.002c-58.216,0-106-46.9-106-105v-45h106   c21.76,0,41.385-9.313,55.098-24.166c10.183,14.598,27.097,24.166,46.205,24.166h3.697v45   C361.004,254.215,313.567,301.002,256.004,301.002z M256.004,30.002c51.144,0,96.24,36.977,103.928,91h-2.625   c-14.504,0-26.303-11.803-26.303-26.31c0,0,0-18.706,0-18.714c-0.013-8.273-6.724-14.976-15-14.976c-8.284,0-15,6.716-15,15   c0,24.81-20.187,45-45,45H151.07C158.379,69.632,202.647,30.002,256.004,30.002z M391.004,482.002h-30v-16c0-8.284-6.716-15-15-15   s-15,6.716-15,15v16h-150v-16c0-8.284-6.716-15-15-15s-15,6.716-15,15v16h-31v-76c0-14.634,7.587-27.899,19.037-36.176   l108.165,78.325c2.625,1.901,5.711,2.851,8.797,2.851c3.106,0,6.213-0.963,8.847-2.887l107.529-78.539   c11.273,8.186,18.624,21.46,18.624,36.426V482.002z M286.004,361.002h47.252l-77.29,56.453l-77.96-56.453h47.998   c8.284,0,15-6.716,15-15v-15.825c4.927,0.539,9.93,0.825,15,0.825c5.07,0,10.073-0.291,15-0.838v15.838   C271.004,354.286,277.72,361.002,286.004,361.002z"/>
</g>















</svg>
