<?xml version="1.0" encoding="iso-8859-1"?>
<!-- Generator: Adobe Illustrator 21.0.0, SVG Export Plug-In . SVG Version: 6.00 Build 0)  -->
<svg xmlns="http://www.w3.org/2000/svg" xmlns:xlink="http://www.w3.org/1999/xlink" version="1.1" id="Capa_1" x="0px" y="0px" viewBox="0 0 512 512" style="enable-background:new 0 0 512 512;" xml:space="preserve" width="512" height="512">
<g>
	<path d="M316,60H195c-24.813,0-45-20.187-45-45c0-8.284-6.716-15-15-15H15C6.716,0,0,6.716,0,15c0,107.712,87.424,197,195,197h121   c24.935,0,46,20.607,46,45s-21.065,45-46,45h-24.787l-46.819-46.82c-8.5-8.5-19.8-13.18-31.82-13.18c-19.49,0-118.125,0-137.574,0   c-24.813,0-45,20.187-45,45c0,5.856,1.136,11.449,3.181,16.586C14.085,308.791,0,326.277,0,347c0,11.517,4.354,22.032,11.495,30   C4.354,384.968,0,395.483,0,407c0,20.723,14.085,38.209,33.181,43.414C31.136,455.551,30,461.144,30,467c0,24.813,20.187,45,45,45   c18.307,0,122.067,0,137.574,0c12.02,0,23.32-4.681,31.819-13.18l46.82-46.82H316c107.595,0,196-87.324,196-195   C512,149.203,423.498,60,316,60z M75,271.99h17.58C90.915,276.685,90,281.742,90,287v15H75c-8.271,0-15-6.729-15-15   S66.729,271.99,75,271.99z M45,332c14.05,0,30.905,0,45,0v30c-14.095,0-30.95,0-45,0c-8.271,0-15-6.729-15-15S36.729,332,45,332z    M45,392h30c8.271,0,15,6.729,15,15s-6.729,15-15,15H45c-8.271,0-15-6.729-15-15S36.729,392,45,392z M60,467   c0-8.271,6.729-15,15-15h30c8.271,0,15,6.729,15,15s-6.729,15-15,15H75C66.729,482,60,475.271,60,467z M285,422   c-3.979,0-7.794,1.581-10.606,4.394l-51.213,51.213c-2.833,2.833-6.6,4.393-10.606,4.393H147.42c1.665-4.695,2.58-9.742,2.58-15   c0-20.723-14.085-38.209-33.181-43.414C118.864,418.449,120,412.856,120,407c0-5.625-1.047-11.008-2.94-15.977   c19.52-3.169,36.54-13.892,47.94-29.071C178.695,380.186,200.493,392,225,392c8.284,0,15-6.716,15-15s-6.716-15-15-15   c-24.813,0-45-20.187-45-45c0-8.284-6.716-15-15-15s-15,6.716-15,15c0,19.556-12.539,36.239-30,42.43V287c0-8.271,6.729-15,15-15   h77.574c4.006,0,7.773,1.56,10.606,4.394l51.213,51.213C277.206,330.42,281.021,332,285,332h16v90H285z M331,421.333v-90.815   c33.8-6.769,61-36.665,61-73.518c0-41.414-34.58-75-76-75H195c-85.989,0-156.826-66.914-164.34-152h90.847   c6.969,34.191,37.274,60,73.493,60h121c89.981,0,166,76.477,166,167C482,342.956,415.53,413.771,331,421.333z"/>
</g>















</svg>
