<?xml version="1.0" encoding="iso-8859-1"?>
<!-- Generator: Adobe Illustrator 21.0.0, SVG Export Plug-In . SVG Version: 6.00 Build 0)  -->
<svg xmlns="http://www.w3.org/2000/svg" xmlns:xlink="http://www.w3.org/1999/xlink" version="1.1" id="Capa_1" x="0px" y="0px" viewBox="0 0 512 512" style="enable-background:new 0 0 512 512;" xml:space="preserve" width="512" height="512">
<g>
	<path d="M316.561,60c0-33.084-26.916-60-60-60s-60,26.916-60,60s26.916,60,60,60S316.561,93.084,316.561,60z M256.561,90   c-16.542,0-30-13.458-30-30s13.458-30,30-30s30,13.458,30,30S273.103,90,256.561,90z"/>
	<path d="M196.551,120c-36.215,0.005-66.514,25.812-73.484,60H76.561c-24.813,0-45,20.187-45,45s20.187,45,45,45H181.57l0.001,197   c0,24.813,20.177,45,44.99,45c11.515,0,22.033-4.347,30-11.486c7.967,7.139,18.485,11.486,30,11.486c24.813,0,45-20.187,45-45   c0-7.27,0-182.369,0-197h106c24.813,0,45-20.187,45-45s-20.187-45-45-45h-47.507c-6.969-34.188-37.269-59.995-73.484-60   C316.565,120,196.556,120,196.551,120z M61.561,225c0-8.271,6.729-15,15-15h15v30h-15C68.289,240,61.561,233.271,61.561,225z    M301.561,330v92h-30v-92H301.561z M241.561,422h-30l0-92h30V422z M226.561,482c-8.271,0-15-6.729-15-15v-15h30v15   C241.561,475.271,234.832,482,226.561,482z M286.561,482c-8.271,0-15-6.729-15-15v-15h30v15   C301.561,475.271,294.832,482,286.561,482z M301.561,300h-90l0-30h90.001V300z M452.561,225c0,8.271-6.729,15-15,15h-15v-30h15   C445.832,210,452.561,216.729,452.561,225z M361.561,195c0,8.284,6.716,15,15,15h16v30h-61v-45c0-8.284-6.716-15-15-15   s-15,6.716-15,15v45H211.56l0-45c0-8.284-6.716-15-15-15s-14.99,6.716-14.99,15l0,45h-60.009v-30h15c8.284,0,15-6.716,15-15   c0-22.838,17.106-41.744,39.177-44.61l55.217,55.217c2.929,2.929,6.768,4.394,10.606,4.394s7.678-1.464,10.606-4.394l55.217-55.217   C344.455,153.256,361.561,172.162,361.561,195z M280.347,150l-23.787,23.787L232.774,150H280.347z"/>
	<path d="M459.638,7.637c-2.165-3.716-5.82-6.325-10.039-7.163c-4.22-0.836-8.594,0.176-12.015,2.783   c-38.641,29.451-60.023,41.065-60.023,79.29c0,38.251,31.57,67.453,67.007,67.453c0.002,0,0.004,0,0.005,0   c32.416-0.012,66.867-23.267,66.867-66.342c0-10.448-1.875-20.609-5.28-28.609c-2.302-5.408-7.55-8.974-13.426-9.121   c-5.845-0.146-11.296,3.151-13.866,8.437c-1.847,3.798-3.033,7.426-3.986,10.341c-0.357,1.093-0.703,2.162-1.08,3.192   c-0.81,2.218-4.092,1.627-4.172-0.677c0.069-0.545,0.505-2.005,0.826-3.079C474.243,51.449,476.528,36.631,459.638,7.637z    M471.792,99.295c2.349,0,4.656-0.259,6.892-0.753c-6.374,15.479-22.477,21.453-34.119,21.458   c-17.871-0.002-37.004-15.051-37.004-37.453c0-18.094,5.403-23.209,33.589-44.406c5.077,14.619-1.521,16.745-1.521,29.009   C439.628,84.875,454.057,99.295,471.792,99.295z"/>
	<path d="M68.428,150c0.001,0,0.003,0,0.005,0c35.378,0,67.007-29.144,67.007-67.453c0-38.287-21.457-49.895-60.023-79.29   c-3.423-2.607-7.8-3.621-12.015-2.783c-4.219,0.838-7.874,3.446-10.039,7.163C36.472,36.631,38.757,51.449,42.545,64.141   c0.317,1.063,0.747,2.503,0.823,3.062c-0.202,1.592-4.184,3.391-5.169,0.695c-1.234-3.378-2.503-8.259-5.066-13.534   c-2.569-5.286-7.997-8.59-13.865-8.437c-5.876,0.147-11.124,3.712-13.426,9.119c-3.406,7.999-5.281,18.16-5.281,28.611   C0.561,123.94,33.246,149.987,68.428,150z M40.208,99.295c17.977,0,33.164-14.721,33.164-32.145   c0-12.276-6.594-14.403-1.521-29.009c28.186,21.197,33.589,26.312,33.589,44.406c0,22.402-19.133,37.451-37.004,37.453   c-11.474-0.005-28.218-6.064-34.931-21.417C35.682,99.051,37.926,99.295,40.208,99.295z"/>
</g>















</svg>
